<?xml version="1.0" encoding="utf-8"?>
<svg width="384px" height="384px" viewBox="0 0 384 384" version="1.1" xmlns:xlink="http://www.w3.org/1999/xlink" xmlns="http://www.w3.org/2000/svg">
  <defs>
    <path d="M0 0L256 0L256 256L0 256L0 0Z" id="path_1" />
    <rect width="384" height="384" id="artboard_1" />
    <clipPath id="clip_1">
      <use xlink:href="#artboard_1" clip-rule="evenodd" />
    </clipPath>
    <clipPath id="mask_1">
      <use xlink:href="#path_1" />
    </clipPath>
  </defs>
  <g id="Young" clip-path="url(#clip_1)">
    <use xlink:href="#artboard_1" stroke="none" fill="#0D9488" />
    <g id="svg" transform="matrix(0.9659258 0.25881904 -0.25881904 0.9659258 101.490265 35.23265)">
      <path d="M0 0L256 0L256 256L0 256L0 0Z" id="Background" fill="none" fill-rule="evenodd" stroke="none" />
      <g clip-path="url(#mask_1)">
        <path d="M208 48L208 216C208 220.418 204.418 224 200 224L55.9999 224C51.5816 224 47.9999 220.418 47.9999 216L47.9999 48C47.9999 43.5817 51.5816 40 55.9999 40L95.9999 40C90.7959 46.918 87.9876 55.3432 87.9999 64L87.9999 72L168 72L168 64C168.012 55.3415 165.203 46.9165 159.999 39.9987L200 40C204.418 40 208 43.5817 208 48L208 48Z" id="Shape" fill="#F0FDFA" fill-opacity="0.2" stroke="none" />
        <path d="M168 152C168 156.418 164.418 160 160 160L96 160C93.1419 160 90.5009 158.475 89.0718 156C87.6427 153.525 87.6427 150.475 89.0718 148C90.5009 145.525 93.1419 144 96 144L160 144C164.418 144 168 147.582 168 152L168 152ZM160 112L96 112C91.5817 112 88 115.582 88 120C88 124.418 91.5817 128 96 128L160 128C164.418 128 168 124.418 168 120C168 115.582 164.418 112 160 112L160 112ZM216 48L216 216C216 224.837 208.837 232 200 232L56 232C47.1634 232 40 224.837 40 216L40 48C40 39.1634 47.1634 32 56 32L92.26 32C101.352 21.8209 114.352 16.0014 128 16.0014C141.648 16.0014 154.649 21.8209 163.74 32L200 32C208.837 32 216 39.1634 216 48L216 48ZM96 64L160 64C160 46.3269 145.673 32 128 32C110.327 31.9999 96.0001 46.3267 96 63.9998L96 64ZM200 48L173.25 48C175.07 53.1381 176 58.549 176 64L176 72C176 76.4182 172.418 80 168 80L88 80C83.5817 80 80 76.4182 80 72L80 64C80 58.5507 80.9298 53.1397 82.7495 48.0015L56 48L56 216L200 216L200 48Z" id="Shape" fill="#F0FDFA" fill-rule="evenodd" stroke="none" />
      </g>
    </g>
  </g>
</svg>